<?xml version="1.0" encoding="iso-8859-1"?>
<!-- Generator: Adobe Illustrator 19.1.1, SVG Export Plug-In . SVG Version: 6.00 Build 0)  -->
<svg xmlns="http://www.w3.org/2000/svg" xmlns:xlink="http://www.w3.org/1999/xlink" version="1.1" id="Layer_1" x="0px" y="0px" viewBox="0 0 40 40" style="enable-background:new 0 0 40 40;" xml:space="preserve" width="40px" height="40px">
<g>
	<path style="fill:#8BB7F0;" d="M20,38.5C9.799,38.5,1.5,30.201,1.5,20S9.799,1.5,20,1.5S38.5,9.799,38.5,20S30.201,38.5,20,38.5z"/>
	<path style="fill:#4E7AB5;" d="M20,2c9.925,0,18,8.075,18,18s-8.075,18-18,18S2,29.925,2,20S10.075,2,20,2 M20,1   C9.507,1,1,9.507,1,20s8.507,19,19,19s19-8.507,19-19S30.493,1,20,1L20,1z"/>
</g>
<g>
	<polygon style="fill:#FFFFFF;" points="16.335,23.674 7.398,20.909 28.947,11.032 18.763,32.17  "/>
	<path style="fill:#4E7AB5;" d="M27.895,12.065L18.883,30.77l-1.992-6.973l-0.149-0.521l-0.517-0.16l-7.428-2.298L27.895,12.065    M30,10L6,21l9.929,3.071l2.714,9.5L30,10L30,10z"/>
</g>
</svg>
