<svg xmlns="http://www.w3.org/2000/svg" width="40" height="40"><path d="M20 38.5C9.799 38.5 1.5 30.201 1.5 20S9.799 1.5 20 1.5 38.5 9.799 38.5 20 30.201 38.5 20 38.5z" fill="#8bb7f0"/><path d="M20 2c9.925 0 18 8.075 18 18s-8.075 18-18 18S2 29.925 2 20 10.075 2 20 2m0-1C9.507 1 1 9.507 1 20s8.507 19 19 19 19-8.507 19-19S30.493 1 20 1z" fill="#4e7ab5"/><g><path fill="#fff" d="M16.335 23.674l-8.937-2.765 21.549-9.877L18.763 32.17z"/><path d="M27.895 12.065L18.883 30.77l-1.992-6.973-.149-.521-.517-.16-7.428-2.298 19.098-8.753M30 10L6 21l9.929 3.071 2.714 9.5L30 10z" fill="#4e7ab5"/></g></svg>